<svg xmlns="http://www.w3.org/2000/svg" width="40" height="40" fill="none" viewBox="0 0 40 40"><path fill="#33658a" d="M3.334 20h9.332v12H3.334z"/><path fill="#33658a" d="M11.333 10.666c2.216 0 4 1.784 4 4v5.333a1.33 1.33 0 0 1-1.334 1.333H2A1.33 1.33 0 0 1 .668 20v-5.333c0-2.216 1.783-4 4-4z"/><path fill="#fdce97" d="M10 8.178v2.49c0 1.107-.892 2-2 2s-2-.893-2-2v-2.49z"/><path fill="#fdd5a6" d="M11.333 4.666v1.333A3.326 3.326 0 0 1 8 9.333a3.326 3.326 0 0 1-3.333-3.334V4.666z"/><path fill="#dbe9ee" d="M11.333 4.666v-.667A3.326 3.326 0 0 0 8 .666a3.326 3.326 0 0 0-3.333 3.333v.667z"/><path fill="#ff6b6b" d="M27.333 20h9.333v12h-9.333z"/><path fill="#ff6b6b" d="M35.332 10.666c2.216 0 4 1.784 4 4v5.333a1.33 1.33 0 0 1-1.334 1.333h-12A1.33 1.33 0 0 1 24.667 20v-5.333c0-2.216 1.784-4 4-4z"/><path fill="#fdce97" d="M33.999 8.178v2.49c0 1.107-.892 2-2 2s-2-.893-2-2v-2.49z"/><path fill="#fdd5a6" d="M35.332 4.666v1.333a3.326 3.326 0 0 1-3.333 3.334 3.326 3.326 0 0 1-3.333-3.334V4.666z"/><path fill="#dbe9ee" d="M35.332 4.666v-.667A3.326 3.326 0 0 0 31.999.666a3.326 3.326 0 0 0-3.333 3.333v.667zm-22.666 24h14.666v10.666H12.666z"/><path fill="#dbe9ee" d="M31.332 27.332c0 1.107-.892 2-2 2H10.666c-1.108 0-2-.893-2-2v-6c0-3.324 2.676-6 6-6h10.666c3.324 0 6 2.676 6 6z"/><path fill="#fdd5a6" d="M19.333 25.332h2c1.107 0 2 .892 2 2s-.896 1.907-2 2h-2z"/><path fill="#fdce97" d="M22.666 12v3.333s-.667 2-2.667 2-2.666-2-2.666-2V12z"/><path fill="#fdd5a6" d="M24 7.334v2c0 2.216-1.785 4-4 4a3.99 3.99 0 0 1-4-4v-2z"/><path fill="#dbe9ee" d="M24 6.666c0-2.216-1.785-4-4-4a3.99 3.99 0 0 0-4 4v.667h8z"/><path fill="#000" d="M31.999 0a4.01 4.01 0 0 0-4.001 4.001v1.997c0 1.18.517 2.24 1.333 2.973v1.027h-.665a4.66 4.66 0 0 0-4.02 2.29c-.493.774.706 1.484 1.147.678a3.32 3.32 0 0 1 2.873-1.634h.761c.245.93.976 1.662 1.907 1.904v2.098c0 .89 1.334.89 1.334 0v-2.099a2.67 2.67 0 0 0 1.901-1.903h.763a3.31 3.31 0 0 1 3.333 3.333v5.333c0 .38-.285.667-.666.667h-4c-.902-.013-.902 1.346 0 1.333h2v9.334H30c-.889 0-.889 1.334 0 1.334h6.663c.37 0 .67-.3.669-.67v-9.998h.667c1.096 0 2-.904 2-2v-5.333a4.67 4.67 0 0 0-4.667-4.667h-.666V8.971A4 4 0 0 0 35.999 6V4a4.007 4.007 0 0 0-4-4.001M7.999 0c-2.204 0-4 1.797-4 4.001V6c0 1.18.518 2.24 1.334 2.972V10h-.667A4.67 4.67 0 0 0 0 14.666V20c0 1.097.904 2 2 2h.667v9.999c-.002.37.299.67.669.669h6.662c.89 0 .89-1.333 0-1.333H4V22h2c.901.013.901-1.346 0-1.333H2A.65.65 0 0 1 1.333 20v-5.333a3.31 3.31 0 0 1 3.334-3.333h.762c.244.928.973 1.66 1.901 1.903v2.1c0 .888 1.335.888 1.335 0v-2.098a2.68 2.68 0 0 0 1.906-1.905h.762c1.233 0 2.294.655 2.872 1.634.441.806 1.64.096 1.147-.678a4.66 4.66 0 0 0-4.02-2.29h-.664V8.973A4 4 0 0 0 12 6V4.002a4.01 4.01 0 0 0-4-4m24 1.332a2.647 2.647 0 0 1 2.667 2.668H29.33a2.65 2.65 0 0 1 2.668-2.668m-24 .002a2.65 2.65 0 0 1 2.669 2.667H5.333A2.647 2.647 0 0 1 8 1.335m11.999.664a4.67 4.67 0 0 0-4.665 4.665v2.668c0 1.268.51 2.419 1.333 3.261v2.742q.001.106.035.208s.648 2.005 2.633 2.386v2.736c0 .889 1.333.889 1.333 0v-2.737c1.982-.384 2.633-2.385 2.633-2.385a.7.7 0 0 0 .035-.208v-2.744a4.65 4.65 0 0 0 1.333-3.26V6.665A4.673 4.673 0 0 0 19.999 2m0 1.333a3.314 3.314 0 0 1 3.337 3.332h-6.669a3.31 3.31 0 0 1 3.332-3.332m9.333 2.002h5.335V6A2.647 2.647 0 0 1 32 8.667a2.65 2.65 0 0 1-2.668-2.668zm-23.998.002h5.335V6A2.65 2.65 0 0 1 8 8.668 2.647 2.647 0 0 1 5.333 6zm11.333 2.661h6.67v1.335a3.317 3.317 0 0 1-3.338 3.336 3.313 3.313 0 0 1-3.332-3.336zm13.998 1.768c.418.149.867.235 1.335.235s.915-.086 1.333-.235v.899c0 .75-.583 1.333-1.333 1.333s-1.335-.583-1.335-1.333zm-23.998.002C7.084 9.915 7.532 10 8 10s.916-.086 1.334-.234v.898c0 .75-.584 1.333-1.334 1.333s-1.334-.583-1.334-1.333zM22 13.544v1.64c-.036.109-.59 1.48-2.002 1.48s-1.961-1.37-1.997-1.48v-1.639a4.6 4.6 0 0 0 1.997.457A4.6 4.6 0 0 0 22 13.544m-7.334 1.122A6.667 6.667 0 0 0 8 21.333v6c0 1.465 1.2 2.666 2.666 2.666h16v8.668h-13.33v-6.67c0-.888-1.335-.888-1.335 0v7.334a.67.67 0 0 0 .665.669H27.33c.37.001.67-.3.669-.67V30h1.333c1.466 0 2.667-1.2 2.667-2.666v-6a6.667 6.667 0 0 0-6.667-6.667c-.901-.012-.901 1.346 0 1.333a5.307 5.307 0 0 1 5.334 5.334v6c0 .75-.584 1.333-1.334 1.333H23.61c.24-.387.39-.835.39-1.334a2.676 2.676 0 0 0-2.667-2.666h-8v-4a.668.668 0 1 0-1.333 0v4.666a.666.666 0 0 0 .666.667h5.999v2.667h-7.999c-.75 0-1.333-.583-1.333-1.334v-6A5.307 5.307 0 0 1 14.666 16a.665.665 0 0 0 .478-1.141.67.67 0 0 0-.478-.192m22.007.658a.67.67 0 0 0-.674.674v1.998H34a.668.668 0 1 0 0 1.334h2.662a.666.666 0 0 0 .669-.664v-2.668a.667.667 0 0 0-.659-.674m-33.348.001a.667.667 0 0 0-.658.675v2.667a.667.667 0 0 0 .669.664h2.661a.668.668 0 0 0 0-1.334H4V16a.667.667 0 0 0-.675-.674m23.996 4.665a.666.666 0 0 0-.655.675v4h-1.334a.666.666 0 0 0 0 1.334h1.998a.666.666 0 0 0 .669-.664v-4.67a.665.665 0 0 0-.678-.675M19.998 26h1.335c.75 0 1.333.582 1.333 1.332 0 .747-.571 1.262-1.383 1.334h-1.285z"/></svg>