<svg xmlns="http://www.w3.org/2000/svg" width="14" height="16" fill="none" viewBox="0 0 14 16"><path fill="#004d40" d="M.22 15.595h.685v-.887l.343-.253h8.81l.345.258v.882h.18l.01-.705.3-.182.367.217a.1.1 0 0 0 .05.015.1.1 0 0 0 .053-.015l.365-.217.365.217a.1.1 0 0 0 .105 0l.365-.217.312.205v.682h.905c.113 0 .203.09.203.203 0 .112-.09.202-.203.202H.22a.2.2 0 0 1-.202-.202c0-.11.092-.203.202-.203m8.89 0h.615v-.417c0-.19-.137-.345-.307-.345s-.308.155-.308.345zm-1.512 0h.617v-.417c0-.19-.137-.345-.307-.345s-.308.155-.308.345v.417zm-1.513 0h.618v-.417c0-.19-.138-.345-.308-.345s-.307.155-.307.345v.417zm-1.512 0h.617v-.417c0-.19-.137-.345-.307-.345s-.308.155-.308.345v.417zm-1.513 0h.618v-.417c0-.19-.138-.345-.308-.345s-.307.155-.307.345v.417zm-1.51 0h.618v-.417c0-.19-.138-.345-.308-.345s-.307.155-.307.345v.417zm4.088-8.113q-.116 0-.23-.017l-.068-.03s.053-.103.06-.113q.07-.135.163-.257v-.79a.095.095 0 1 1 .19 0v.792c.062.083.115.17.157.25l.075.125-.082.015q-.135.026-.265.025m-4.065 4.746C1.568 9.583 3.885 8.313 4.875 7.77l.04-.022a6 6 0 0 0 .293-.17l.017-.013.023.005c.142.035.27.052.395.052q.191 0 .41-.054l.022-.005.018.012c.07.045.172.105.342.195.99.543 3.305 1.81 3.298 4.453l.007.757H1.565z"/><path fill="#004d40" d="M11.255 14.157q.024.015.053.015a.1.1 0 0 0 .052-.013l.365-.22.363.22q.025.015.052.015a.1.1 0 0 0 .053-.012l.365-.22.317.197v.523l-.265-.158a.1.1 0 0 0-.052-.015.1.1 0 0 0-.05.013l-.368.22-.362-.22a.1.1 0 0 0-.053-.015.1.1 0 0 0-.052.012l-.365.22-.363-.22a.1.1 0 0 0-.052-.015.1.1 0 0 0-.053.013l-.262.16v-.045l.012-.498.3-.182z"/><path fill="#004d40" d="m10.578 13.846.012-.495.3-.183.368.218a.1.1 0 0 0 .05.014.1.1 0 0 0 .052-.014l.365-.218.365.218a.1.1 0 0 0 .105 0l.365-.218.315.203v.522l-.265-.16a.1.1 0 0 0-.05-.015.1.1 0 0 0-.052.015l-.368.22-.362-.22a.1.1 0 0 0-.053-.015.1.1 0 0 0-.052.012l-.365.22-.363-.22a.1.1 0 0 0-.052-.014.1.1 0 0 0-.053.012l-.262.158z"/><path fill="#004d40" d="m10.578 13.075.012-.498.3-.182.365.22q.024.014.053.014a.1.1 0 0 0 .052-.012l.365-.22.363.22q.025.015.052.015a.1.1 0 0 0 .053-.012l.365-.22.317.197v.523l-.265-.158a.1.1 0 0 0-.052-.015.1.1 0 0 0-.05.015l-.368.218-.365-.218a.1.1 0 0 0-.105 0l-.362.218-.365-.218a.1.1 0 0 0-.053-.015.1.1 0 0 0-.052.015l-.263.158v-.045z"/><path fill="#004d40" d="m10.578 12.305.012-.498.3-.182.365.22q.024.015.053.015a.1.1 0 0 0 .052-.012l.365-.22.363.22q.025.014.052.014a.1.1 0 0 0 .053-.012l.365-.225.317.203v.522l-.265-.16a.1.1 0 0 0-.052-.015.1.1 0 0 0-.05.012l-.368.22-.362-.22a.1.1 0 0 0-.053-.014.1.1 0 0 0-.052.012l-.365.22-.363-.22a.1.1 0 0 0-.052-.015.1.1 0 0 0-.053.012l-.262.16z"/><path fill="#004d40" d="M10.578 10.973h2.297v.607l-.265-.16a.1.1 0 0 0-.052-.015.1.1 0 0 0-.05.015l-.368.218-.365-.218a.1.1 0 0 0-.105 0l-.365.218-.365-.218a.1.1 0 0 0-.052-.015.1.1 0 0 0-.053.015l-.262.158v-.605zm-.328-.617h2.95l-.047.077-.25.363h-2.385zm-.055-.784h.678V6.85l.022-.003a6.6 6.6 0 0 1 1.668 0l.02.003v2.72h.675v.63h-3.065v-.628zm1.53-6.357q-.477 0-.95.09l-.06.012v-.26l.02-.024.02-.006q.221-.044.445-.065v-1.12a.54.54 0 0 1 .155-.375.6.6 0 0 1 .17-.112v-.307c0-.053.023-.106.06-.143q.024-.021.053-.035V.087c0-.047.04-.087.087-.087.048 0 .088.04.088.087v.78c.067.033.112.1.112.178v.31a.53.53 0 0 1 .325.488v1.12c.153.017.308.037.465.07l.02.005v.282l-.06-.012a5 5 0 0 0-.95-.093m0 .152c.295 0 .593.028.885.078l.075.012-.157.248-.025.012-.015-.002a6 6 0 0 0-.763-.048c-.242 0-.492.015-.777.05l-.015.003-.17-.26.075-.013q.444-.081.887-.08m0 2.729q-.56 0-1.112.107l-.06.013v-.328l.02-.025.02-.005c.132-.027.27-.042.405-.06V3.891l.022-.003a6 6 0 0 1 1.415 0l.023.003v1.902q.209.027.425.068l.017.007v.348l-.06-.013a6 6 0 0 0-1.115-.107m0 .154c.35 0 .703.032 1.05.098l.075.012-.195.305-.025.013-.015-.003a7 7 0 0 0-.887-.058q-.444 0-.888.058l-.032.005-.208-.317.075-.016q.523-.097 1.05-.097m-2.64 7.561a.31.31 0 0 0-.305-.312.31.31 0 0 0-.305.312v.465h-.887v-.465a.31.31 0 0 0-.305-.312.31.31 0 0 0-.305.312v.465h-.885v-.465a.31.31 0 0 0-.305-.312.31.31 0 0 0-.305.312v.465h-.885v-.465a.31.31 0 0 0-.305-.312.31.31 0 0 0-.305.312v.465H3.1v-.465a.307.307 0 0 0-.302-.312.31.31 0 0 0-.305.312v.465H1.308v-.842l.217-.268h8.258l.217.268v.842h-.917v-.465z"/></svg>