<svg xmlns="http://www.w3.org/2000/svg" width="51" height="48" fill="none" viewBox="0 0 51 48"><path fill="#03060e" d="M29.05 40.32c0-1.536-1.08-2.87-2.64-3.245-1.98-.47-3.36-2.17-3.36-4.128V31.68c0-.528.45-.96 1-.96h6c.55 0 1 .432 1 .96s-.45.96-1 .96h-5v.307c0 1.075.76 2.007 1.85 2.275 2.44.576 4.15 2.679 4.15 5.098 0 2.122-1.79 3.84-4 3.84s-4-1.718-4-3.84c0-.528.45-.96 1-.96s1 .432 1 .96c0 1.056.9 1.92 2 1.92s2-.864 2-1.92m-19 3.84h6c.55 0 1-.432 1-.96s-.45-.96-1-.96h-5v-.307c0-1.075.76-2.007 1.85-2.275 2.44-.576 4.15-2.679 4.15-5.098 0-2.122-1.79-3.84-4-3.84s-4 1.718-4 3.84c0 .528.45.96 1 .96s1-.432 1-.96c0-1.056.9-1.92 2-1.92s2 .864 2 1.92c0 1.536-1.08 2.87-2.64 3.245-1.98.47-3.36 2.17-3.36 4.128V43.2c0 .528.45.96 1 .96m10 0c.55 0 1-.432 1-.96v-1.92c0-.528-.45-.96-1-.96s-1 .432-1 .96v1.92c0 .528.45.96 1 .96m13.49-1.094c.47.268 1.09.124 1.37-.327l6-9.6a.94.94 0 0 0-.34-1.315c-.47-.269-1.09-.125-1.37.326l-6 9.6c-.29.452-.14 1.037.34 1.316m6.51-2.746c-.55 0-1 .432-1 .96s.45.96 1 .96 1-.432 1-.96-.45-.96-1-.96m-6-5.76c.55 0 1-.432 1-.96s-.45-.96-1-.96-1 .432-1 .96.45.96 1 .96m16-11.52v24c0 .528-.45.96-1 .96h-48c-.55 0-1-.432-1-.96v-24c0-.202.06-.394.19-.557l5-6.72c.18-.25.49-.403.81-.403h10.07a9.7 9.7 0 0 1-1.57-5.28C14.55 4.522 19.26 0 25.05 0s10.5 4.522 10.5 10.08c0 1.94-.58 3.744-1.57 5.28h10.07c.32 0 .63.154.81.403l5 6.72c.13.163.19.355.19.557m-33.5-12.96c0 4.502 3.81 8.16 8.5 8.16s8.5-3.658 8.5-8.16-3.81-8.16-8.5-8.16-8.5 3.658-8.5 8.16m-13.56 12H47.1l-3.57-4.8H32.38a10.7 10.7 0 0 1-7.33 2.88c-2.85 0-5.44-1.104-7.33-2.88H6.56zm45.06 6.72h-46v17.28h46zm0-4.8h-46v2.88h46zm-29.5-13.92c0-3.437 2.92-6.24 6.5-6.24s6.5 2.803 6.5 6.24-2.92 6.24-6.5 6.24-6.5-2.803-6.5-6.24m2 0c0 2.38 2.02 4.32 4.5 4.32s4.5-1.94 4.5-4.32-2.02-4.32-4.5-4.32-4.5 1.94-4.5 4.32"/></svg>